<mxfile host="Electron" agent="Mozilla/5.0 (Windows NT 10.0; Win64; x64) AppleWebKit/537.36 (KHTML, like Gecko) draw.io/25.0.2 Chrome/128.0.6613.186 Electron/32.2.5 Safari/537.36" version="25.0.2">
  <diagram id="GJkDJ2cyF-b6Ele8KK0W" name="Page-1">
    <mxGraphModel dx="3500" dy="2070" grid="1" gridSize="10" guides="1" tooltips="1" connect="1" arrows="1" fold="1" page="1" pageScale="1" pageWidth="850" pageHeight="1100" math="0" shadow="0">
      <root>
        <mxCell id="0" />
        <mxCell id="1" parent="0" />
        <mxCell id="8Um6IXLDYc830DwKUIsp-14" value="" style="shape=table;startSize=0;container=1;collapsible=0;childLayout=tableLayout;fontSize=16;" parent="1" vertex="1">
          <mxGeometry x="213" y="60" width="1360" height="3090" as="geometry" />
        </mxCell>
        <mxCell id="8Um6IXLDYc830DwKUIsp-15" value="" style="shape=tableRow;horizontal=0;startSize=0;swimlaneHead=0;swimlaneBody=0;strokeColor=inherit;top=0;left=0;bottom=0;right=0;collapsible=0;dropTarget=0;fillColor=none;points=[[0,0.5],[1,0.5]];portConstraint=eastwest;fontSize=16;" parent="8Um6IXLDYc830DwKUIsp-14" vertex="1">
          <mxGeometry width="1360" height="58" as="geometry" />
        </mxCell>
        <mxCell id="8Um6IXLDYc830DwKUIsp-16" value="Customer" style="shape=partialRectangle;html=1;whiteSpace=wrap;connectable=0;strokeColor=inherit;overflow=hidden;fillColor=none;top=0;left=0;bottom=0;right=0;pointerEvents=1;fontSize=16;" parent="8Um6IXLDYc830DwKUIsp-15" vertex="1">
          <mxGeometry width="376" height="58" as="geometry">
            <mxRectangle width="376" height="58" as="alternateBounds" />
          </mxGeometry>
        </mxCell>
        <mxCell id="8Um6IXLDYc830DwKUIsp-17" value="Restaurant Owner" style="shape=partialRectangle;html=1;whiteSpace=wrap;connectable=0;strokeColor=inherit;overflow=hidden;fillColor=none;top=0;left=0;bottom=0;right=0;pointerEvents=1;fontSize=16;" parent="8Um6IXLDYc830DwKUIsp-15" vertex="1">
          <mxGeometry x="376" width="532" height="58" as="geometry">
            <mxRectangle width="532" height="58" as="alternateBounds" />
          </mxGeometry>
        </mxCell>
        <mxCell id="8Um6IXLDYc830DwKUIsp-18" value="System" style="shape=partialRectangle;html=1;whiteSpace=wrap;connectable=0;strokeColor=inherit;overflow=hidden;fillColor=none;top=0;left=0;bottom=0;right=0;pointerEvents=1;fontSize=16;" parent="8Um6IXLDYc830DwKUIsp-15" vertex="1">
          <mxGeometry x="908" width="452" height="58" as="geometry">
            <mxRectangle width="452" height="58" as="alternateBounds" />
          </mxGeometry>
        </mxCell>
        <mxCell id="8Um6IXLDYc830DwKUIsp-19" value="" style="shape=tableRow;horizontal=0;startSize=0;swimlaneHead=0;swimlaneBody=0;strokeColor=inherit;top=0;left=0;bottom=0;right=0;collapsible=0;dropTarget=0;fillColor=none;points=[[0,0.5],[1,0.5]];portConstraint=eastwest;fontSize=16;" parent="8Um6IXLDYc830DwKUIsp-14" vertex="1">
          <mxGeometry y="58" width="1360" height="3032" as="geometry" />
        </mxCell>
        <mxCell id="8Um6IXLDYc830DwKUIsp-20" value="" style="shape=partialRectangle;html=1;whiteSpace=wrap;connectable=0;strokeColor=inherit;overflow=hidden;fillColor=none;top=0;left=0;bottom=0;right=0;pointerEvents=1;fontSize=16;" parent="8Um6IXLDYc830DwKUIsp-19" vertex="1">
          <mxGeometry width="376" height="3032" as="geometry">
            <mxRectangle width="376" height="3032" as="alternateBounds" />
          </mxGeometry>
        </mxCell>
        <mxCell id="8Um6IXLDYc830DwKUIsp-21" value="" style="shape=partialRectangle;html=1;whiteSpace=wrap;connectable=0;strokeColor=inherit;overflow=hidden;fillColor=none;top=0;left=0;bottom=0;right=0;pointerEvents=1;fontSize=16;" parent="8Um6IXLDYc830DwKUIsp-19" vertex="1">
          <mxGeometry x="376" width="532" height="3032" as="geometry">
            <mxRectangle width="532" height="3032" as="alternateBounds" />
          </mxGeometry>
        </mxCell>
        <mxCell id="8Um6IXLDYc830DwKUIsp-22" value="" style="shape=partialRectangle;html=1;whiteSpace=wrap;connectable=0;strokeColor=inherit;overflow=hidden;fillColor=none;top=0;left=0;bottom=0;right=0;pointerEvents=1;fontSize=16;" parent="8Um6IXLDYc830DwKUIsp-19" vertex="1">
          <mxGeometry x="908" width="452" height="3032" as="geometry">
            <mxRectangle width="452" height="3032" as="alternateBounds" />
          </mxGeometry>
        </mxCell>
        <mxCell id="8Um6IXLDYc830DwKUIsp-35" value="" style="ellipse;html=1;shape=startState;fillColor=#000000;strokeColor=#000000;" parent="1" vertex="1">
          <mxGeometry x="370" y="120" width="30" height="30" as="geometry" />
        </mxCell>
        <mxCell id="8Um6IXLDYc830DwKUIsp-36" value="" style="edgeStyle=orthogonalEdgeStyle;html=1;verticalAlign=bottom;endArrow=open;endSize=8;strokeColor=#000000;rounded=0;" parent="1" edge="1">
          <mxGeometry relative="1" as="geometry">
            <mxPoint x="384" y="190" as="targetPoint" />
            <mxPoint x="384" y="146" as="sourcePoint" />
          </mxGeometry>
        </mxCell>
        <mxCell id="8Um6IXLDYc830DwKUIsp-49" value="&lt;span style=&quot;font-family: Garamond; font-size: 19px;&quot;&gt;Open The Applications&lt;/span&gt;" style="rounded=1;whiteSpace=wrap;html=1;" parent="1" vertex="1">
          <mxGeometry x="325" y="190" width="120" height="60" as="geometry" />
        </mxCell>
        <mxCell id="8Um6IXLDYc830DwKUIsp-50" value="" style="endArrow=classic;html=1;rounded=0;exitX=1;exitY=0.5;exitDx=0;exitDy=0;entryX=0.574;entryY=0.814;entryDx=0;entryDy=0;entryPerimeter=0;" parent="1" source="8Um6IXLDYc830DwKUIsp-49" target="8Um6IXLDYc830DwKUIsp-66" edge="1">
          <mxGeometry width="50" height="50" relative="1" as="geometry">
            <mxPoint x="890" y="530" as="sourcePoint" />
            <mxPoint x="940" y="480" as="targetPoint" />
          </mxGeometry>
        </mxCell>
        <mxCell id="8Um6IXLDYc830DwKUIsp-51" value="&lt;font face=&quot;Garamond&quot; style=&quot;font-size: 19px;&quot;&gt;Login View&lt;/font&gt;" style="rounded=1;whiteSpace=wrap;html=1;" parent="1" vertex="1">
          <mxGeometry x="1240" y="190" width="120" height="60" as="geometry" />
        </mxCell>
        <mxCell id="8Um6IXLDYc830DwKUIsp-52" value="" style="endArrow=classic;html=1;rounded=0;exitX=0.5;exitY=1;exitDx=0;exitDy=0;" parent="1" source="8Um6IXLDYc830DwKUIsp-51" target="8Um6IXLDYc830DwKUIsp-53" edge="1">
          <mxGeometry width="50" height="50" relative="1" as="geometry">
            <mxPoint x="890" y="530" as="sourcePoint" />
            <mxPoint x="940" y="480" as="targetPoint" />
            <Array as="points">
              <mxPoint x="1300" y="320" />
            </Array>
          </mxGeometry>
        </mxCell>
        <mxCell id="8Um6IXLDYc830DwKUIsp-53" value="&lt;font face=&quot;Garamond&quot; style=&quot;font-size: 19px;&quot;&gt;Display The Login Form&lt;/font&gt;" style="rounded=1;whiteSpace=wrap;html=1;" parent="1" vertex="1">
          <mxGeometry x="325" y="300" width="120" height="60" as="geometry" />
        </mxCell>
        <mxCell id="8Um6IXLDYc830DwKUIsp-54" value="&lt;font face=&quot;Garamond&quot; style=&quot;font-size: 19px;&quot;&gt;Already have an account ?&amp;nbsp;&lt;/font&gt;" style="rhombus;whiteSpace=wrap;html=1;" parent="1" vertex="1">
          <mxGeometry x="297.5" y="420" width="175" height="140" as="geometry" />
        </mxCell>
        <mxCell id="8Um6IXLDYc830DwKUIsp-55" value="" style="endArrow=classic;html=1;rounded=0;exitX=0.5;exitY=1;exitDx=0;exitDy=0;entryX=0.5;entryY=0;entryDx=0;entryDy=0;" parent="1" source="8Um6IXLDYc830DwKUIsp-53" target="8Um6IXLDYc830DwKUIsp-54" edge="1">
          <mxGeometry width="50" height="50" relative="1" as="geometry">
            <mxPoint x="790" y="530" as="sourcePoint" />
            <mxPoint x="840" y="480" as="targetPoint" />
          </mxGeometry>
        </mxCell>
        <mxCell id="8Um6IXLDYc830DwKUIsp-56" value="&lt;font style=&quot;font-size: 19px;&quot; face=&quot;Garamond&quot;&gt;Registration View&lt;/font&gt;" style="rounded=1;whiteSpace=wrap;html=1;" parent="1" vertex="1">
          <mxGeometry x="1240" y="451" width="120" height="60" as="geometry" />
        </mxCell>
        <mxCell id="8Um6IXLDYc830DwKUIsp-57" value="" style="endArrow=classic;html=1;rounded=0;entryX=0.566;entryY=0.357;entryDx=0;entryDy=0;entryPerimeter=0;" parent="1" source="8Um6IXLDYc830DwKUIsp-54" target="8Um6IXLDYc830DwKUIsp-70" edge="1">
          <mxGeometry width="50" height="50" relative="1" as="geometry">
            <mxPoint x="790" y="530" as="sourcePoint" />
            <mxPoint x="840" y="480" as="targetPoint" />
          </mxGeometry>
        </mxCell>
        <mxCell id="8Um6IXLDYc830DwKUIsp-58" value="&lt;font style=&quot;font-size: 19px;&quot; face=&quot;Garamond&quot;&gt;Select Role&lt;/font&gt;" style="rounded=1;whiteSpace=wrap;html=1;" parent="1" vertex="1">
          <mxGeometry x="315" y="620" width="130" height="60" as="geometry" />
        </mxCell>
        <mxCell id="8Um6IXLDYc830DwKUIsp-60" value="&lt;font face=&quot;Garamond&quot;&gt;&lt;span style=&quot;font-size: 19px;&quot;&gt;Enter Email and Password&lt;/span&gt;&lt;/font&gt;" style="rounded=1;whiteSpace=wrap;html=1;" parent="1" vertex="1">
          <mxGeometry x="315" y="772" width="130" height="60" as="geometry" />
        </mxCell>
        <mxCell id="8Um6IXLDYc830DwKUIsp-61" value="" style="endArrow=classic;html=1;rounded=0;exitX=0.5;exitY=1;exitDx=0;exitDy=0;entryX=1;entryY=0.5;entryDx=0;entryDy=0;" parent="1" source="8Um6IXLDYc830DwKUIsp-56" target="8Um6IXLDYc830DwKUIsp-58" edge="1">
          <mxGeometry width="50" height="50" relative="1" as="geometry">
            <mxPoint x="790" y="700" as="sourcePoint" />
            <mxPoint x="840" y="650" as="targetPoint" />
            <Array as="points">
              <mxPoint x="1300" y="640" />
            </Array>
          </mxGeometry>
        </mxCell>
        <mxCell id="8Um6IXLDYc830DwKUIsp-62" value="" style="endArrow=classic;html=1;rounded=0;exitX=0.5;exitY=1;exitDx=0;exitDy=0;" parent="1" source="8Um6IXLDYc830DwKUIsp-58" target="8Um6IXLDYc830DwKUIsp-60" edge="1">
          <mxGeometry width="50" height="50" relative="1" as="geometry">
            <mxPoint x="790" y="700" as="sourcePoint" />
            <mxPoint x="840" y="650" as="targetPoint" />
          </mxGeometry>
        </mxCell>
        <mxCell id="8Um6IXLDYc830DwKUIsp-63" value="&lt;font face=&quot;Garamond&quot;&gt;&lt;span style=&quot;font-size: 19px;&quot;&gt;Veryfi the user ?&lt;/span&gt;&lt;/font&gt;" style="rhombus;whiteSpace=wrap;html=1;" parent="1" vertex="1">
          <mxGeometry x="1370" y="716" width="150" height="160" as="geometry" />
        </mxCell>
        <mxCell id="8Um6IXLDYc830DwKUIsp-64" value="" style="endArrow=classic;html=1;rounded=0;exitX=1;exitY=0.5;exitDx=0;exitDy=0;" parent="1" source="8Um6IXLDYc830DwKUIsp-60" target="8Um6IXLDYc830DwKUIsp-63" edge="1">
          <mxGeometry width="50" height="50" relative="1" as="geometry">
            <mxPoint x="790" y="600" as="sourcePoint" />
            <mxPoint x="840" y="550" as="targetPoint" />
          </mxGeometry>
        </mxCell>
        <mxCell id="8Um6IXLDYc830DwKUIsp-65" value="" style="endArrow=classic;html=1;rounded=0;entryX=0.25;entryY=0.5;entryDx=0;entryDy=0;entryPerimeter=0;exitX=1;exitY=0.5;exitDx=0;exitDy=0;" parent="1" source="8Um6IXLDYc830DwKUIsp-63" target="8Um6IXLDYc830DwKUIsp-66" edge="1">
          <mxGeometry width="50" height="50" relative="1" as="geometry">
            <mxPoint x="790" y="600" as="sourcePoint" />
            <mxPoint x="840" y="550" as="targetPoint" />
            <Array as="points">
              <mxPoint x="1520" y="770" />
              <mxPoint x="1520" y="140" />
              <mxPoint x="1070" y="140" />
              <mxPoint x="1070" y="178" />
            </Array>
          </mxGeometry>
        </mxCell>
        <mxCell id="8Um6IXLDYc830DwKUIsp-66" value="" style="shape=line;html=1;strokeWidth=6;strokeColor=#000000;rotation=90;" parent="1" vertex="1">
          <mxGeometry x="1125" y="205" width="130" height="10" as="geometry" />
        </mxCell>
        <mxCell id="8Um6IXLDYc830DwKUIsp-68" value="" style="endArrow=classic;html=1;rounded=0;entryX=0;entryY=0.5;entryDx=0;entryDy=0;exitX=0.582;exitY=0.7;exitDx=0;exitDy=0;exitPerimeter=0;" parent="1" source="8Um6IXLDYc830DwKUIsp-66" target="8Um6IXLDYc830DwKUIsp-51" edge="1">
          <mxGeometry width="50" height="50" relative="1" as="geometry">
            <mxPoint x="790" y="380" as="sourcePoint" />
            <mxPoint x="840" y="330" as="targetPoint" />
          </mxGeometry>
        </mxCell>
        <mxCell id="8Um6IXLDYc830DwKUIsp-69" value="" style="endArrow=classic;html=1;rounded=0;exitX=0.5;exitY=0;exitDx=0;exitDy=0;entryX=0.25;entryY=0.5;entryDx=0;entryDy=0;entryPerimeter=0;" parent="1" source="8Um6IXLDYc830DwKUIsp-63" target="8Um6IXLDYc830DwKUIsp-70" edge="1">
          <mxGeometry width="50" height="50" relative="1" as="geometry">
            <mxPoint x="890" y="720" as="sourcePoint" />
            <mxPoint x="940" y="670" as="targetPoint" />
            <Array as="points">
              <mxPoint x="1445" y="380" />
              <mxPoint x="1080" y="380" />
              <mxPoint x="1080" y="443" />
            </Array>
          </mxGeometry>
        </mxCell>
        <mxCell id="8Um6IXLDYc830DwKUIsp-70" value="" style="shape=line;html=1;strokeWidth=6;strokeColor=#000000;rotation=90;" parent="1" vertex="1">
          <mxGeometry x="1125" y="470" width="130" height="10" as="geometry" />
        </mxCell>
        <mxCell id="8Um6IXLDYc830DwKUIsp-71" value="" style="endArrow=classic;html=1;rounded=0;exitX=0.566;exitY=0.814;exitDx=0;exitDy=0;exitPerimeter=0;entryX=0;entryY=0.5;entryDx=0;entryDy=0;" parent="1" source="8Um6IXLDYc830DwKUIsp-70" target="8Um6IXLDYc830DwKUIsp-56" edge="1">
          <mxGeometry width="50" height="50" relative="1" as="geometry">
            <mxPoint x="930" y="460" as="sourcePoint" />
            <mxPoint x="980" y="410" as="targetPoint" />
          </mxGeometry>
        </mxCell>
        <mxCell id="8Um6IXLDYc830DwKUIsp-72" value="&lt;span style=&quot;font-family: Garamond; font-size: 19px;&quot;&gt;Enter Email and Password&lt;/span&gt;" style="rounded=1;whiteSpace=wrap;html=1;" parent="1" vertex="1">
          <mxGeometry x="320" y="930" width="120" height="60" as="geometry" />
        </mxCell>
        <mxCell id="8Um6IXLDYc830DwKUIsp-73" value="" style="endArrow=classic;html=1;rounded=0;exitX=0;exitY=0.5;exitDx=0;exitDy=0;entryX=0;entryY=0.5;entryDx=0;entryDy=0;" parent="1" source="8Um6IXLDYc830DwKUIsp-54" target="8Um6IXLDYc830DwKUIsp-72" edge="1">
          <mxGeometry width="50" height="50" relative="1" as="geometry">
            <mxPoint x="790" y="840" as="sourcePoint" />
            <mxPoint x="840" y="790" as="targetPoint" />
            <Array as="points">
              <mxPoint x="240" y="490" />
              <mxPoint x="240" y="960" />
            </Array>
          </mxGeometry>
        </mxCell>
        <mxCell id="8Um6IXLDYc830DwKUIsp-74" value="&lt;span style=&quot;font-family: Garamond; font-size: 19px;&quot;&gt;Veryfi the user ?&lt;/span&gt;" style="rhombus;whiteSpace=wrap;html=1;" parent="1" vertex="1">
          <mxGeometry x="1255" y="891" width="150" height="130" as="geometry" />
        </mxCell>
        <mxCell id="8Um6IXLDYc830DwKUIsp-75" value="" style="endArrow=classic;html=1;rounded=0;exitX=1;exitY=0.5;exitDx=0;exitDy=0;entryX=0;entryY=0.5;entryDx=0;entryDy=0;" parent="1" source="8Um6IXLDYc830DwKUIsp-72" target="8Um6IXLDYc830DwKUIsp-74" edge="1">
          <mxGeometry width="50" height="50" relative="1" as="geometry">
            <mxPoint x="790" y="840" as="sourcePoint" />
            <mxPoint x="840" y="790" as="targetPoint" />
          </mxGeometry>
        </mxCell>
        <mxCell id="8Um6IXLDYc830DwKUIsp-76" value="" style="endArrow=classic;html=1;rounded=0;exitX=1;exitY=0.5;exitDx=0;exitDy=0;entryX=0.398;entryY=0.929;entryDx=0;entryDy=0;entryPerimeter=0;" parent="1" source="8Um6IXLDYc830DwKUIsp-74" target="8Um6IXLDYc830DwKUIsp-66" edge="1">
          <mxGeometry width="50" height="50" relative="1" as="geometry">
            <mxPoint x="790" y="880" as="sourcePoint" />
            <mxPoint x="840" y="830" as="targetPoint" />
            <Array as="points">
              <mxPoint x="1540" y="956" />
              <mxPoint x="1550" y="130" />
              <mxPoint x="1000" y="130" />
              <mxPoint x="1000" y="200" />
            </Array>
          </mxGeometry>
        </mxCell>
        <mxCell id="8Um6IXLDYc830DwKUIsp-77" value="" style="endArrow=classic;html=1;rounded=0;exitX=0.5;exitY=1;exitDx=0;exitDy=0;" parent="1" source="8Um6IXLDYc830DwKUIsp-74" target="8Um6IXLDYc830DwKUIsp-78" edge="1">
          <mxGeometry width="50" height="50" relative="1" as="geometry">
            <mxPoint x="900" y="1080" as="sourcePoint" />
            <mxPoint x="900" y="1090" as="targetPoint" />
            <Array as="points">
              <mxPoint x="1330" y="1100" />
            </Array>
          </mxGeometry>
        </mxCell>
        <mxCell id="8Um6IXLDYc830DwKUIsp-78" value="&lt;font face=&quot;Garamond&quot; style=&quot;font-size: 19px;&quot;&gt;Select Restaurant&lt;/font&gt;" style="rounded=1;whiteSpace=wrap;html=1;" parent="1" vertex="1">
          <mxGeometry x="290" y="1080" width="155" height="60" as="geometry" />
        </mxCell>
        <mxCell id="8Um6IXLDYc830DwKUIsp-79" value="&lt;font face=&quot;Garamond&quot; style=&quot;font-size: 19px;&quot;&gt;View Food Details&lt;/font&gt;" style="rounded=1;whiteSpace=wrap;html=1;" parent="1" vertex="1">
          <mxGeometry x="293" y="1240" width="152" height="60" as="geometry" />
        </mxCell>
        <mxCell id="8Um6IXLDYc830DwKUIsp-80" value="" style="endArrow=classic;html=1;rounded=0;exitX=0.5;exitY=1;exitDx=0;exitDy=0;entryX=0.5;entryY=0;entryDx=0;entryDy=0;" parent="1" source="8Um6IXLDYc830DwKUIsp-78" target="8Um6IXLDYc830DwKUIsp-79" edge="1">
          <mxGeometry width="50" height="50" relative="1" as="geometry">
            <mxPoint x="850" y="1240" as="sourcePoint" />
            <mxPoint x="900" y="1190" as="targetPoint" />
          </mxGeometry>
        </mxCell>
        <mxCell id="8Um6IXLDYc830DwKUIsp-81" value="&lt;font style=&quot;font-size: 19px;&quot; face=&quot;Garamond&quot;&gt;Select Ingredients&lt;/font&gt;" style="rounded=1;whiteSpace=wrap;html=1;" parent="1" vertex="1">
          <mxGeometry x="299" y="1380" width="145" height="60" as="geometry" />
        </mxCell>
        <mxCell id="8Um6IXLDYc830DwKUIsp-82" value="" style="endArrow=classic;html=1;rounded=0;exitX=0.5;exitY=1;exitDx=0;exitDy=0;entryX=0.5;entryY=0;entryDx=0;entryDy=0;" parent="1" target="8Um6IXLDYc830DwKUIsp-81" edge="1">
          <mxGeometry width="50" height="50" relative="1" as="geometry">
            <mxPoint x="372" y="1300" as="sourcePoint" />
            <mxPoint x="368.5" y="1380" as="targetPoint" />
          </mxGeometry>
        </mxCell>
        <mxCell id="8Um6IXLDYc830DwKUIsp-83" value="&lt;font face=&quot;Garamond&quot; style=&quot;font-size: 19px;&quot;&gt;Add to Cart&lt;/font&gt;" style="rounded=1;whiteSpace=wrap;html=1;" parent="1" vertex="1">
          <mxGeometry x="302.5" y="1520" width="138.5" height="60" as="geometry" />
        </mxCell>
        <mxCell id="8Um6IXLDYc830DwKUIsp-84" value="" style="endArrow=classic;html=1;rounded=0;exitX=0.5;exitY=1;exitDx=0;exitDy=0;entryX=0.5;entryY=0;entryDx=0;entryDy=0;" parent="1" source="8Um6IXLDYc830DwKUIsp-81" target="8Um6IXLDYc830DwKUIsp-83" edge="1">
          <mxGeometry width="50" height="50" relative="1" as="geometry">
            <mxPoint x="790" y="1560" as="sourcePoint" />
            <mxPoint x="840" y="1510" as="targetPoint" />
          </mxGeometry>
        </mxCell>
        <mxCell id="8Um6IXLDYc830DwKUIsp-85" value="&lt;font style=&quot;font-size: 19px;&quot; face=&quot;Garamond&quot;&gt;View Cart&lt;/font&gt;" style="rounded=1;whiteSpace=wrap;html=1;" parent="1" vertex="1">
          <mxGeometry x="311.75" y="1667" width="120" height="60" as="geometry" />
        </mxCell>
        <mxCell id="8Um6IXLDYc830DwKUIsp-87" value="&lt;font face=&quot;Garamond&quot; style=&quot;font-size: 19px;&quot;&gt;Set Address&lt;/font&gt;" style="rounded=1;whiteSpace=wrap;html=1;" parent="1" vertex="1">
          <mxGeometry x="311.75" y="1833" width="120" height="60" as="geometry" />
        </mxCell>
        <mxCell id="8Um6IXLDYc830DwKUIsp-88" value="" style="endArrow=classic;html=1;rounded=0;exitX=1.786;exitY=0.458;exitDx=0;exitDy=0;entryX=0.5;entryY=0;entryDx=0;entryDy=0;exitPerimeter=0;" parent="1" source="8Um6IXLDYc830DwKUIsp-98" target="8Um6IXLDYc830DwKUIsp-87" edge="1">
          <mxGeometry width="50" height="50" relative="1" as="geometry">
            <mxPoint x="790" y="1750" as="sourcePoint" />
            <mxPoint x="840" y="1700" as="targetPoint" />
          </mxGeometry>
        </mxCell>
        <mxCell id="8Um6IXLDYc830DwKUIsp-89" value="&lt;font face=&quot;Garamond&quot; style=&quot;font-size: 19px;&quot;&gt;Pay Bill&lt;/font&gt;" style="rounded=1;whiteSpace=wrap;html=1;" parent="1" vertex="1">
          <mxGeometry x="311.5" y="1960" width="120" height="60" as="geometry" />
        </mxCell>
        <mxCell id="8Um6IXLDYc830DwKUIsp-90" value="" style="endArrow=classic;html=1;rounded=0;exitX=0.5;exitY=1;exitDx=0;exitDy=0;entryX=0.5;entryY=0;entryDx=0;entryDy=0;" parent="1" source="8Um6IXLDYc830DwKUIsp-87" target="8Um6IXLDYc830DwKUIsp-89" edge="1">
          <mxGeometry width="50" height="50" relative="1" as="geometry">
            <mxPoint x="790" y="1880" as="sourcePoint" />
            <mxPoint x="840" y="1830" as="targetPoint" />
          </mxGeometry>
        </mxCell>
        <mxCell id="8Um6IXLDYc830DwKUIsp-91" value="&lt;font face=&quot;Garamond&quot; style=&quot;font-size: 19px;&quot;&gt;is Success?&lt;/font&gt;" style="rhombus;whiteSpace=wrap;html=1;" parent="1" vertex="1">
          <mxGeometry x="1240" y="2100" width="158.5" height="170" as="geometry" />
        </mxCell>
        <mxCell id="8Um6IXLDYc830DwKUIsp-92" value="" style="endArrow=classic;html=1;rounded=0;exitX=0.5;exitY=1;exitDx=0;exitDy=0;entryX=0.479;entryY=0.065;entryDx=0;entryDy=0;entryPerimeter=0;" parent="1" source="8Um6IXLDYc830DwKUIsp-89" target="8Um6IXLDYc830DwKUIsp-91" edge="1">
          <mxGeometry width="50" height="50" relative="1" as="geometry">
            <mxPoint x="790" y="2180" as="sourcePoint" />
            <mxPoint x="840" y="2130" as="targetPoint" />
            <Array as="points">
              <mxPoint x="372" y="2080" />
              <mxPoint x="1316" y="2060" />
            </Array>
          </mxGeometry>
        </mxCell>
        <mxCell id="8Um6IXLDYc830DwKUIsp-96" value="" style="endArrow=classic;html=1;rounded=0;exitX=0.5;exitY=1;exitDx=0;exitDy=0;entryX=0.529;entryY=0.396;entryDx=0;entryDy=0;entryPerimeter=0;" parent="1" source="8Um6IXLDYc830DwKUIsp-83" edge="1">
          <mxGeometry width="50" height="50" relative="1" as="geometry">
            <mxPoint x="372" y="1580" as="sourcePoint" />
            <mxPoint x="370.82000000000016" y="1640.145" as="targetPoint" />
          </mxGeometry>
        </mxCell>
        <mxCell id="8Um6IXLDYc830DwKUIsp-97" value="" style="endArrow=classic;html=1;rounded=0;exitX=0.25;exitY=0;exitDx=0;exitDy=0;entryX=0.643;entryY=0.744;entryDx=0;entryDy=0;entryPerimeter=0;" parent="1" source="8Um6IXLDYc830DwKUIsp-111" target="8Um6IXLDYc830DwKUIsp-98" edge="1">
          <mxGeometry width="50" height="50" relative="1" as="geometry">
            <mxPoint x="790" y="1940" as="sourcePoint" />
            <mxPoint x="354.82000000000016" y="1641.2849999999999" as="targetPoint" />
            <Array as="points">
              <mxPoint x="270" y="1750" />
              <mxPoint x="348" y="1750" />
            </Array>
          </mxGeometry>
        </mxCell>
        <mxCell id="8Um6IXLDYc830DwKUIsp-99" value="" style="endArrow=classic;html=1;rounded=0;exitX=0.5;exitY=1;exitDx=0;exitDy=0;entryX=1.1;entryY=0.472;entryDx=0;entryDy=0;entryPerimeter=0;" parent="1" source="8Um6IXLDYc830DwKUIsp-85" target="8Um6IXLDYc830DwKUIsp-98" edge="1">
          <mxGeometry width="50" height="50" relative="1" as="geometry">
            <mxPoint x="372" y="1727" as="sourcePoint" />
            <mxPoint x="372" y="1833" as="targetPoint" />
          </mxGeometry>
        </mxCell>
        <mxCell id="8Um6IXLDYc830DwKUIsp-98" value="" style="html=1;points=[];perimeter=orthogonalPerimeter;fillColor=strokeColor;rotation=90;" parent="1" vertex="1">
          <mxGeometry x="365" y="1740" width="5" height="80" as="geometry" />
        </mxCell>
        <mxCell id="8Um6IXLDYc830DwKUIsp-103" value="" style="endArrow=classic;html=1;rounded=0;exitX=1;exitY=0.5;exitDx=0;exitDy=0;entryX=0.204;entryY=0.408;entryDx=0;entryDy=0;entryPerimeter=0;" parent="1" source="8Um6IXLDYc830DwKUIsp-91" target="8Um6IXLDYc830DwKUIsp-115" edge="1">
          <mxGeometry width="50" height="50" relative="1" as="geometry">
            <mxPoint x="790" y="2450" as="sourcePoint" />
            <mxPoint x="503.46000000000026" y="2370.4300000000003" as="targetPoint" />
            <Array as="points">
              <mxPoint x="1480" y="2185" />
              <mxPoint x="1480" y="2280" />
            </Array>
          </mxGeometry>
        </mxCell>
        <mxCell id="8Um6IXLDYc830DwKUIsp-104" value="&lt;font face=&quot;Garamond&quot; style=&quot;font-size: 19px;&quot;&gt;Notify The Restaurant Owner for Order&lt;/font&gt;" style="rounded=1;whiteSpace=wrap;html=1;" parent="1" vertex="1">
          <mxGeometry x="760" y="2394" width="220" height="60" as="geometry" />
        </mxCell>
        <mxCell id="8Um6IXLDYc830DwKUIsp-107" value="&lt;font face=&quot;Garamond&quot;&gt;&lt;font style=&quot;font-size: 19px;&quot;&gt;Sent Payment Successful Message and&amp;nbsp;&lt;/font&gt;&lt;span style=&quot;font-size: 19px;&quot;&gt;Order Confrim&lt;/span&gt;&lt;/font&gt;" style="rounded=1;whiteSpace=wrap;html=1;" parent="1" vertex="1">
          <mxGeometry x="360" y="2540" width="190" height="90" as="geometry" />
        </mxCell>
        <mxCell id="8Um6IXLDYc830DwKUIsp-112" value="" style="endArrow=classic;html=1;rounded=0;exitX=0;exitY=0.5;exitDx=0;exitDy=0;entryX=0.441;entryY=0.957;entryDx=0;entryDy=0;entryPerimeter=0;" parent="1" source="8Um6IXLDYc830DwKUIsp-91" target="8Um6IXLDYc830DwKUIsp-111" edge="1">
          <mxGeometry width="50" height="50" relative="1" as="geometry">
            <mxPoint x="1235" y="2185.0000000000005" as="sourcePoint" />
            <mxPoint x="275.5" y="2157" as="targetPoint" />
            <Array as="points">
              <mxPoint x="320" y="2210" />
            </Array>
          </mxGeometry>
        </mxCell>
        <mxCell id="8Um6IXLDYc830DwKUIsp-111" value="&lt;font style=&quot;font-size: 16px;&quot; face=&quot;Garamond&quot;&gt;Sent Payment Failure&lt;/font&gt;&lt;div&gt;&lt;font style=&quot;font-size: 16px;&quot; face=&quot;Garamond&quot;&gt;Message&lt;/font&gt;&lt;/div&gt;" style="rounded=1;whiteSpace=wrap;html=1;" parent="1" vertex="1">
          <mxGeometry x="234" y="2097" width="186" height="60" as="geometry" />
        </mxCell>
        <mxCell id="8Um6IXLDYc830DwKUIsp-114" value="" style="endArrow=classic;html=1;rounded=0;exitX=2.233;exitY=0.665;exitDx=0;exitDy=0;exitPerimeter=0;" parent="1" source="8Um6IXLDYc830DwKUIsp-115" target="8Um6IXLDYc830DwKUIsp-107" edge="1">
          <mxGeometry width="50" height="50" relative="1" as="geometry">
            <mxPoint x="476.1400000000001" y="2373.8550000000005" as="sourcePoint" />
            <mxPoint x="463.3156338423107" y="2539.9999999999995" as="targetPoint" />
            <Array as="points">
              <mxPoint x="1459" y="2370" />
              <mxPoint x="450" y="2380" />
            </Array>
          </mxGeometry>
        </mxCell>
        <mxCell id="8Um6IXLDYc830DwKUIsp-115" value="0" style="html=1;points=[];perimeter=orthogonalPerimeter;fillColor=strokeColor;rotation=90;" parent="1" vertex="1">
          <mxGeometry x="1470" y="2250.0000000000005" width="5" height="80" as="geometry" />
        </mxCell>
        <mxCell id="8Um6IXLDYc830DwKUIsp-116" value="" style="endArrow=classic;html=1;rounded=0;entryX=1;entryY=0.5;entryDx=0;entryDy=0;exitX=1.167;exitY=0.481;exitDx=0;exitDy=0;exitPerimeter=0;" parent="1" source="8Um6IXLDYc830DwKUIsp-115" target="8Um6IXLDYc830DwKUIsp-104" edge="1">
          <mxGeometry width="50" height="50" relative="1" as="geometry">
            <mxPoint x="1060" y="2260" as="sourcePoint" />
            <mxPoint x="1110" y="2210" as="targetPoint" />
            <Array as="points">
              <mxPoint x="1474" y="2420" />
            </Array>
          </mxGeometry>
        </mxCell>
        <mxCell id="8Um6IXLDYc830DwKUIsp-118" value="&lt;font face=&quot;Garamond&quot;&gt;&lt;span style=&quot;font-size: 19px;&quot;&gt;Substract the service Tax from payment&lt;/span&gt;&lt;/font&gt;" style="rounded=1;whiteSpace=wrap;html=1;" parent="1" vertex="1">
          <mxGeometry x="1220" y="2450" width="170" height="120" as="geometry" />
        </mxCell>
        <mxCell id="8Um6IXLDYc830DwKUIsp-119" value="" style="endArrow=classic;html=1;rounded=0;exitX=0.9;exitY=0.148;exitDx=0;exitDy=0;exitPerimeter=0;entryX=1;entryY=0.661;entryDx=0;entryDy=0;entryPerimeter=0;" parent="1" source="8Um6IXLDYc830DwKUIsp-115" target="8Um6IXLDYc830DwKUIsp-118" edge="1">
          <mxGeometry width="50" height="50" relative="1" as="geometry">
            <mxPoint x="1060" y="2460" as="sourcePoint" />
            <mxPoint x="1110" y="2410" as="targetPoint" />
            <Array as="points">
              <mxPoint x="1510" y="2525" />
            </Array>
          </mxGeometry>
        </mxCell>
        <mxCell id="8Um6IXLDYc830DwKUIsp-121" value="&lt;font face=&quot;Garamond&quot; style=&quot;font-size: 19px;&quot;&gt;Pay Restaurant Owner Bill&lt;/font&gt;" style="rounded=1;whiteSpace=wrap;html=1;" parent="1" vertex="1">
          <mxGeometry x="1184" y="2688" width="250" height="60" as="geometry" />
        </mxCell>
        <mxCell id="8Um6IXLDYc830DwKUIsp-122" value="" style="endArrow=classic;html=1;rounded=0;exitX=0.1;exitY=0.673;exitDx=0;exitDy=0;entryX=0.5;entryY=0;entryDx=0;entryDy=0;exitPerimeter=0;" parent="1" source="8Um6IXLDYc830DwKUIsp-126" target="8Um6IXLDYc830DwKUIsp-121" edge="1">
          <mxGeometry width="50" height="50" relative="1" as="geometry">
            <mxPoint x="1010" y="2580" as="sourcePoint" />
            <mxPoint x="1060" y="2530" as="targetPoint" />
          </mxGeometry>
        </mxCell>
        <mxCell id="8Um6IXLDYc830DwKUIsp-123" value="&lt;font face=&quot;Garamond&quot; style=&quot;font-size: 19px;&quot;&gt;is Success?&lt;/font&gt;" style="rhombus;whiteSpace=wrap;html=1;" parent="1" vertex="1">
          <mxGeometry x="1232" y="2800" width="158.5" height="170" as="geometry" />
        </mxCell>
        <mxCell id="8Um6IXLDYc830DwKUIsp-124" value="" style="endArrow=classic;html=1;rounded=0;entryX=0.5;entryY=0;entryDx=0;entryDy=0;exitX=0.5;exitY=1;exitDx=0;exitDy=0;" parent="1" source="8Um6IXLDYc830DwKUIsp-121" target="8Um6IXLDYc830DwKUIsp-123" edge="1">
          <mxGeometry width="50" height="50" relative="1" as="geometry">
            <mxPoint x="1010" y="2580" as="sourcePoint" />
            <mxPoint x="1060" y="2530" as="targetPoint" />
          </mxGeometry>
        </mxCell>
        <mxCell id="8Um6IXLDYc830DwKUIsp-127" value="" style="endArrow=classic;html=1;rounded=0;exitX=0.5;exitY=1;exitDx=0;exitDy=0;entryX=0.367;entryY=0.623;entryDx=0;entryDy=0;entryPerimeter=0;" parent="1" source="8Um6IXLDYc830DwKUIsp-118" target="8Um6IXLDYc830DwKUIsp-126" edge="1">
          <mxGeometry width="50" height="50" relative="1" as="geometry">
            <mxPoint x="1305" y="2570" as="sourcePoint" />
            <mxPoint x="1309" y="2688" as="targetPoint" />
          </mxGeometry>
        </mxCell>
        <mxCell id="8Um6IXLDYc830DwKUIsp-126" value="" style="html=1;points=[];perimeter=orthogonalPerimeter;fillColor=strokeColor;rotation=90;" parent="1" vertex="1">
          <mxGeometry x="1316" y="2590" width="5" height="80" as="geometry" />
        </mxCell>
        <mxCell id="8Um6IXLDYc830DwKUIsp-128" value="" style="endArrow=classic;html=1;rounded=0;exitX=1;exitY=0.5;exitDx=0;exitDy=0;entryX=0.9;entryY=0.156;entryDx=0;entryDy=0;entryPerimeter=0;" parent="1" source="8Um6IXLDYc830DwKUIsp-123" target="8Um6IXLDYc830DwKUIsp-126" edge="1">
          <mxGeometry width="50" height="50" relative="1" as="geometry">
            <mxPoint x="1010" y="2650" as="sourcePoint" />
            <mxPoint x="1060" y="2600" as="targetPoint" />
            <Array as="points">
              <mxPoint x="1530" y="2885" />
              <mxPoint x="1530" y="2590" />
              <mxPoint x="1349" y="2590" />
            </Array>
          </mxGeometry>
        </mxCell>
        <mxCell id="8Um6IXLDYc830DwKUIsp-129" value="&lt;font face=&quot;Garamond&quot; style=&quot;font-size: 19px;&quot;&gt;Notify The Restaurant Owner for Payment&amp;nbsp;&lt;/font&gt;" style="rounded=1;whiteSpace=wrap;html=1;" parent="1" vertex="1">
          <mxGeometry x="760" y="2520" width="210" height="60" as="geometry" />
        </mxCell>
        <mxCell id="8Um6IXLDYc830DwKUIsp-130" value="" style="endArrow=classic;html=1;rounded=0;exitX=0;exitY=0.5;exitDx=0;exitDy=0;entryX=1;entryY=0.5;entryDx=0;entryDy=0;" parent="1" source="8Um6IXLDYc830DwKUIsp-123" target="8Um6IXLDYc830DwKUIsp-129" edge="1">
          <mxGeometry width="50" height="50" relative="1" as="geometry">
            <mxPoint x="1010" y="2650" as="sourcePoint" />
            <mxPoint x="1060" y="2600" as="targetPoint" />
            <Array as="points">
              <mxPoint x="1040" y="2885" />
              <mxPoint x="1030" y="2550" />
            </Array>
          </mxGeometry>
        </mxCell>
        <mxCell id="8Um6IXLDYc830DwKUIsp-131" value="" style="html=1;points=[];perimeter=orthogonalPerimeter;fillColor=strokeColor;rotation=90;" parent="1" vertex="1">
          <mxGeometry x="720" y="2740" width="5" height="80" as="geometry" />
        </mxCell>
        <mxCell id="8Um6IXLDYc830DwKUIsp-132" value="" style="endArrow=classic;html=1;rounded=0;exitX=0;exitY=0.5;exitDx=0;exitDy=0;entryX=0.233;entryY=0.39;entryDx=0;entryDy=0;entryPerimeter=0;" parent="1" source="8Um6IXLDYc830DwKUIsp-104" edge="1">
          <mxGeometry width="50" height="50" relative="1" as="geometry">
            <mxPoint x="748" y="2424" as="sourcePoint" />
            <mxPoint x="719.2999999999997" y="2778.665" as="targetPoint" />
            <Array as="points">
              <mxPoint x="710" y="2424" />
            </Array>
          </mxGeometry>
        </mxCell>
        <mxCell id="8Um6IXLDYc830DwKUIsp-133" value="" style="endArrow=classic;html=1;rounded=0;exitX=0;exitY=0.5;exitDx=0;exitDy=0;" parent="1" source="8Um6IXLDYc830DwKUIsp-129" edge="1">
          <mxGeometry width="50" height="50" relative="1" as="geometry">
            <mxPoint x="770" y="2434" as="sourcePoint" />
            <mxPoint x="730" y="2780" as="targetPoint" />
            <Array as="points">
              <mxPoint x="720" y="2550" />
            </Array>
          </mxGeometry>
        </mxCell>
        <mxCell id="8Um6IXLDYc830DwKUIsp-134" value="" style="html=1;points=[];perimeter=orthogonalPerimeter;fillColor=strokeColor;rotation=90;" parent="1" vertex="1">
          <mxGeometry x="710" y="2940" width="5" height="80" as="geometry" />
        </mxCell>
        <mxCell id="8Um6IXLDYc830DwKUIsp-135" value="" style="endArrow=classic;html=1;rounded=0;exitX=0.5;exitY=1;exitDx=0;exitDy=0;entryX=-0.181;entryY=0.391;entryDx=0;entryDy=0;entryPerimeter=0;" parent="1" source="8Um6IXLDYc830DwKUIsp-107" target="8Um6IXLDYc830DwKUIsp-134" edge="1">
          <mxGeometry width="50" height="50" relative="1" as="geometry">
            <mxPoint x="770" y="2760" as="sourcePoint" />
            <mxPoint x="820" y="2710" as="targetPoint" />
            <Array as="points">
              <mxPoint x="450" y="2880" />
              <mxPoint x="720" y="2880" />
            </Array>
          </mxGeometry>
        </mxCell>
        <mxCell id="8Um6IXLDYc830DwKUIsp-136" value="" style="endArrow=classic;html=1;rounded=0;exitX=1.188;exitY=0.285;exitDx=0;exitDy=0;exitPerimeter=0;entryX=-0.412;entryY=0.144;entryDx=0;entryDy=0;entryPerimeter=0;" parent="1" source="8Um6IXLDYc830DwKUIsp-131" target="8Um6IXLDYc830DwKUIsp-134" edge="1">
          <mxGeometry width="50" height="50" relative="1" as="geometry">
            <mxPoint x="720" y="2880" as="sourcePoint" />
            <mxPoint x="770" y="2830" as="targetPoint" />
          </mxGeometry>
        </mxCell>
        <mxCell id="8Um6IXLDYc830DwKUIsp-137" value="" style="ellipse;html=1;shape=endState;fillColor=#000000;strokeColor=#000000;" parent="1" vertex="1">
          <mxGeometry x="707.5" y="3090" width="30" height="30" as="geometry" />
        </mxCell>
        <mxCell id="8Um6IXLDYc830DwKUIsp-140" value="" style="endArrow=classic;html=1;rounded=0;entryX=0.5;entryY=0;entryDx=0;entryDy=0;" parent="1" target="8Um6IXLDYc830DwKUIsp-137" edge="1">
          <mxGeometry width="50" height="50" relative="1" as="geometry">
            <mxPoint x="720" y="2980" as="sourcePoint" />
            <mxPoint x="770" y="2930" as="targetPoint" />
          </mxGeometry>
        </mxCell>
        <mxCell id="ApIQpcG-dlG6ft4OhgG3-1" value="No" style="text;html=1;align=center;verticalAlign=middle;whiteSpace=wrap;rounded=0;" vertex="1" parent="1">
          <mxGeometry x="472.5" y="460" width="60" height="30" as="geometry" />
        </mxCell>
        <mxCell id="ApIQpcG-dlG6ft4OhgG3-3" value="Yes" style="text;html=1;align=center;verticalAlign=middle;whiteSpace=wrap;rounded=0;" vertex="1" parent="1">
          <mxGeometry x="242.5" y="460" width="60" height="30" as="geometry" />
        </mxCell>
        <mxCell id="ApIQpcG-dlG6ft4OhgG3-6" value="No" style="text;html=1;align=center;verticalAlign=middle;whiteSpace=wrap;rounded=0;" vertex="1" parent="1">
          <mxGeometry x="1390" y="680" width="60" height="30" as="geometry" />
        </mxCell>
        <mxCell id="ApIQpcG-dlG6ft4OhgG3-7" value="Yes" style="text;html=1;align=center;verticalAlign=middle;whiteSpace=wrap;rounded=0;" vertex="1" parent="1">
          <mxGeometry x="1470" y="686" width="60" height="30" as="geometry" />
        </mxCell>
        <mxCell id="ApIQpcG-dlG6ft4OhgG3-8" value="No" style="text;html=1;align=center;verticalAlign=middle;whiteSpace=wrap;rounded=0;" vertex="1" parent="1">
          <mxGeometry x="1410" y="930" width="60" height="30" as="geometry" />
        </mxCell>
        <mxCell id="ApIQpcG-dlG6ft4OhgG3-9" value="Yes" style="text;html=1;align=center;verticalAlign=middle;whiteSpace=wrap;rounded=0;" vertex="1" parent="1">
          <mxGeometry x="1275" y="1021" width="60" height="30" as="geometry" />
        </mxCell>
        <mxCell id="ApIQpcG-dlG6ft4OhgG3-10" value="No" style="text;html=1;align=center;verticalAlign=middle;whiteSpace=wrap;rounded=0;" vertex="1" parent="1">
          <mxGeometry x="1184" y="2150" width="60" height="30" as="geometry" />
        </mxCell>
        <mxCell id="ApIQpcG-dlG6ft4OhgG3-11" value="Yes" style="text;html=1;align=center;verticalAlign=middle;whiteSpace=wrap;rounded=0;" vertex="1" parent="1">
          <mxGeometry x="1415" y="2150" width="60" height="30" as="geometry" />
        </mxCell>
        <mxCell id="ApIQpcG-dlG6ft4OhgG3-12" value="Yes" style="text;html=1;align=center;verticalAlign=middle;whiteSpace=wrap;rounded=0;" vertex="1" parent="1">
          <mxGeometry x="1172" y="2840" width="60" height="30" as="geometry" />
        </mxCell>
        <mxCell id="ApIQpcG-dlG6ft4OhgG3-13" value="No" style="text;html=1;align=center;verticalAlign=middle;whiteSpace=wrap;rounded=0;" vertex="1" parent="1">
          <mxGeometry x="1398.5" y="2840" width="60" height="30" as="geometry" />
        </mxCell>
      </root>
    </mxGraphModel>
  </diagram>
</mxfile>
